<svg id="uuid-00c70fa9-0816-4e32-8c4d-5d320c39a9f1" xmlns="http://www.w3.org/2000/svg" width="18" height="18" viewBox="0 0 18 18">
  <defs>
    <linearGradient id="uuid-8e917126-49b0-4d3a-af96-0164a490553b" x1="12.05" y1="-269.96" x2="4.13" y2="-284.57" gradientTransform="translate(0 -268.48) scale(1 -1)" gradientUnits="userSpaceOnUse">
      <stop offset="0" stop-color="#0fafff" />
      <stop offset="1" stop-color="#2764e7" />
    </linearGradient>
    <linearGradient id="uuid-d586b15b-16e9-4bc1-b304-a12af6afbfee" x1="9" y1="13.44" x2="9" y2="4.56" gradientUnits="userSpaceOnUse">
      <stop offset="0" stop-color="#6ab2ff" />
      <stop offset="1" stop-color="#d8f7ff" />
    </linearGradient>
  </defs>
  <path d="M9,17.87c-.25,0-.49-.05-.71-.15l-1.41-.63c-1.43-.64-2.73-1.51-3.86-2.6-1.41-1.36-2.21-3.26-2.21-5.22V3.29c0-.41.33-.74.74-.74h.94c1.33,0,2.64-.36,3.79-1.04l2.02-1.19c.27-.16.64-.23.89-.17.35.07.44.13.93.43l1.58.93c1.15.68,2.46,1.04,3.79,1.04h.94c.41,0,.74.33.74.74v5.98c0,1.96-.81,3.86-2.21,5.22-1.13,1.09-2.42,1.96-3.86,2.6l-1.41.63c-.23.1-.47.15-.71.15h0Z" fill="url(#uuid-8e917126-49b0-4d3a-af96-0164a490553b)" />
  <path d="M5.06,6.04c0-.82.66-1.48,1.48-1.48.27,0,.49.22.49.49s-.22.49-.49.49-.49.22-.49.49v1.94c0,.39-.15.75-.4,1.02.25.27.4.63.4,1.02v1.94c0,.27.22.49.49.49s.49.22.49.49-.22.49-.49.49c-.82,0-1.48-.66-1.48-1.48v-1.94c0-.23-.15-.42-.37-.48l-.24-.06c-.22-.05-.37-.25-.37-.48s.15-.42.37-.48l.24-.06c.22-.05.37-.25.37-.48v-1.94ZM12.95,6.04c0-.82-.66-1.48-1.48-1.48-.27,0-.49.22-.49.49s.22.49.49.49.49.22.49.49v1.94c0,.39.15.75.4,1.02-.25.27-.4.63-.4,1.02v1.94c0,.27-.22.49-.49.49s-.49.22-.49.49.22.49.49.49c.82,0,1.48-.66,1.48-1.48v-1.94c0-.23.15-.42.37-.48l.24-.06c.22-.05.37-.25.37-.48s-.15-.42-.37-.48l-.24-.06c-.22-.05-.37-.25-.37-.48v-1.94Z" fill="url(#uuid-d586b15b-16e9-4bc1-b304-a12af6afbfee)" />
</svg>
