<svg id="uuid-d26499a6-dc3c-4b25-9c4c-758a2e7e1070" xmlns="http://www.w3.org/2000/svg" width="18" height="18" viewBox="0 0 18 18">
  <path d="M3.96,4.23c.15,0,.27.12.27.27v9.28c0,.44.36.8.8.8h11.67c.15,0,.27.12.27.27v2.65c0,.15-.12.27-.27.27H7.93c-.84,0-1.65-.34-2.25-.93l-3.71-3.71c-.6-.6-.93-1.41-.93-2.25v-6.37c0-.15.12-.27.27-.27h2.65Z" fill="#4135e9" />
  <path d="M10.07.25c.84,0,1.65.33,2.25.93l3.71,3.71c.6.6.93,1.41.93,2.25v6.37c0,.15-.12.27-.27.27h-2.65c-.15,0-.27-.12-.27-.27V4.23c0-.44-.36-.8-.8-.8H1.31c-.15,0-.27-.12-.27-.27V.52c0-.15.12-.27.27-.27h8.76Z" fill="#4135e9" />
  <path d="M10.59,7.41c.21,0,.41.08.56.23l1.85,1.85c.11.11.03.3-.12.3h-7.59c-.15,0-.27-.12-.27-.27v-1.86c0-.15.12-.27.27-.27h5.3Z" fill="#4135e9" />
  <path d="M10.59,4.23c.21,0,.41.08.56.23l1.85,1.85c.11.11.03.3-.12.3h-7.59c-.15,0-.27-.12-.27-.27v-1.86c0-.15.12-.27.27-.27h5.3Z" fill="#4135e9" />
</svg>
