<svg id="uuid-6e7cc753-233d-4417-9496-964bb86b689d" xmlns="http://www.w3.org/2000/svg" width="18" height="18" viewBox="0 0 18 18">
  <defs>
    <linearGradient id="uuid-299e481c-1728-4988-a0a2-bbd82023aa61" x1="2.376" y1="5.25" x2="11.833" y2="13.079" gradientUnits="userSpaceOnUse">
      <stop offset="0" stop-color="#198ab3" />
      <stop offset=".254" stop-color="#1d92ba" />
      <stop offset=".663" stop-color="#28aacd" />
      <stop offset=".933" stop-color="#32bedd" />
    </linearGradient>
    <linearGradient id="uuid-95d49690-be76-4b40-8a22-68139b6cd78e" x1=".913" y1="10.64" x2="5" y2="3.196" gradientUnits="userSpaceOnUse">
      <stop offset="0" stop-color="#50e6ff" />
      <stop offset="1" stop-color="#9cebff" />
    </linearGradient>
    <linearGradient id="uuid-bb1adcf9-d4cb-4b16-9e28-9e02893f5bd0" x1="-1962.841" y1="363.142" x2="-1959.21" y2="355.006" gradientTransform="translate(1974.829 338.562) rotate(19.968)" gradientUnits="userSpaceOnUse">
      <stop offset=".104" stop-color="#999" />
      <stop offset=".126" stop-color="#afafaf" />
      <stop offset=".171" stop-color="#e7e7e7" />
      <stop offset=".189" stop-color="#fff" />
    </linearGradient>
    <linearGradient id="uuid-fa1c28d4-6f1c-421e-8cf1-7df545e2e919" x1="9.109" y1="12.766" x2="11.011" y2="10.864" gradientUnits="userSpaceOnUse">
      <stop offset=".066" stop-color="#999" />
      <stop offset=".085" stop-color="#9d9d9d" />
      <stop offset=".272" stop-color="#c7c7c7" />
      <stop offset=".442" stop-color="#e5e5e5" />
      <stop offset=".586" stop-color="#f8f8f8" />
      <stop offset=".688" stop-color="#fff" />
    </linearGradient>
    <linearGradient id="uuid-d7596bd8-a1e3-44cd-86c5-19fd20270a84" x1="2.732" y1="6.389" x2="4.595" y2="4.484" gradientUnits="userSpaceOnUse">
      <stop offset=".066" stop-color="#999" />
      <stop offset=".253" stop-color="#b3b3b3" />
      <stop offset=".583" stop-color="#dcdcdc" />
      <stop offset=".843" stop-color="#f5f5f5" />
      <stop offset="1" stop-color="#fff" />
    </linearGradient>
  </defs>
  <g>
    <path d="M17.875,12.058c.175-.152-2.06-5.143-2.135-5.428-.141-.326-.376-.618-.689-.791-.086-.048-.178-.085-.273-.111,0,0-4.382-1.175-4.382-1.175-.113-.03-.23-.043-.346-.032-.176-.052-2.26,1.092-2.461,1.166-.04-.009-.26.18-.348.316,0,0-2.374,3.654-2.374,3.654-.221.342-.241.827-.054,1.274l2.011,4.83c.187.451.551.792.958.901l4.382,1.175c.229.08.533.014.669-.057h0c.306-.203,2.354-1.053,2.489-1.393,0,0,2.371-3.655,2.371-3.655.13-.199.184-.44.181-.676ZM7.9,5.6s.006,0,.008,0c.006,0,.013,0,.019,0-.02.001-.039.004-.059.007.011-.002.021-.005.031-.006ZM8.073,5.599s.006,0,.008,0c.003,0,.005.001.008.002-.018-.002-.035-.001-.052-.002.012,0,.024,0,.036,0ZM7.727,5.634c.008-.002.017-.005.025-.008.007-.002.014-.002.02-.004-.019.005-.038.01-.057.016.004-.001.007-.003.011-.005Z" fill="#198ab3" />
    <path d="M13.598,7.708l2.008,4.829c.187.451.166.936-.054,1.274l-2.371,3.655c-.221.342-.609.481-1.016.372l-4.382-1.175c-.407-.109-.772-.451-.958-.902l-2.011-4.83c-.187-.447-.166-.933.054-1.274l2.374-3.654c.22-.338.606-.482,1.013-.373l4.382,1.175c.407.109.775.455.961.902Z" fill="url(#uuid-299e481c-1728-4988-a0a2-bbd82023aa61)" />
  </g>
  <g>
    <path d="M9.247,5.341c.114-.102-1.42-3.56-1.477-3.754-.097-.226-.26-.427-.476-.547-.24-.101-3.211-.929-3.465-.911-.075.006-.148.028-.215.061-.223.139-1.682.765-1.723.964,0,0-1.642,2.528-1.642,2.528-.153.236-.167.572-.038.881,0,0,1.391,3.341,1.391,3.341.129.312.381.548.663.623l3.031.813c.159.055.368.01.463-.039h0c.212-.138,1.628-.73,1.721-.964,0,0,1.64-2.528,1.64-2.528.09-.138.127-.304.125-.468ZM2.348.873s.004,0,.006,0c.004,0,.009,0,.013,0-.014,0-.027.003-.041.005.007-.001.014-.003.022-.004ZM2.467.873s.004,0,.006,0c.002,0,.004,0,.005.001-.012-.001-.024,0-.036-.002.008,0,.016,0,.025,0ZM2.228.898c.006-.002.012-.004.018-.005.005-.001.009-.002.014-.003-.013.003-.027.007-.04.011.003,0,.005-.002.008-.003Z" fill="#50e6ff" />
    <path d="M6.289,2.332l1.389,3.34c.129.312.115.647-.038.881l-1.64,2.528c-.153.236-.421.333-.703.257l-3.031-.813c-.282-.076-.534-.312-.663-.624L.213,4.562c-.129-.309-.115-.645.038-.881L1.892,1.153c.152-.234.419-.333.701-.258l3.031.813c.282.076.536.315.665.624Z" fill="url(#uuid-95d49690-be76-4b40-8a22-68139b6cd78e)" />
  </g>
  <path d="M11.44,11.651c-.046-.72-.665-1.266-1.384-1.22-.186.013-.367.066-.531.156l-4.56-4.686c.302-.65.02-1.422-.629-1.724-.198-.092-.416-.133-.635-.118v.002c-.719.046-1.265.666-1.22,1.385.046.719.665,1.266,1.384,1.22.185-.013.365-.065.528-.154l4.563,4.687c-.3.649-.018,1.419.63,1.721.198.092.416.133.634.118v-.002c.719-.046,1.265-.666,1.22-1.385Z" fill="url(#uuid-bb1adcf9-d4cb-4b16-9e28-9e02893f5bd0)" />
  <circle cx="10.139" cy="11.735" r="1.303" fill="url(#uuid-fa1c28d4-6f1c-421e-8cf1-7df545e2e919)" />
  <path d="M4.271,6.208c0-.23.186-.416.416-.416.106,0,.2.043.274.108.073-.162.115-.341.115-.531,0-.72-.584-1.303-1.303-1.303s-1.303.583-1.303,1.303.584,1.303,1.303,1.303c.228,0,.439-.064.625-.166-.078-.076-.127-.181-.127-.298Z" fill="url(#uuid-d7596bd8-a1e3-44cd-86c5-19fd20270a84)" />
</svg>
