<svg id="uuid-11ad222c-a3c2-4256-9f3d-42f03e155955" xmlns="http://www.w3.org/2000/svg" width="18" height="18" viewBox="0 0 18 18">
  <linearGradient id="uuid-467fa109-7460-4c76-a38e-ba4b6c7505ac" x1="8.148" y1="782.564" x2="11.037" y2="787.826" gradientTransform="translate(0 791.516) scale(1 -1)" gradientUnits="userSpaceOnUse">
    <stop offset=".338" stop-color="#32bedd" />
    <stop offset=".858" stop-color="#50e6ff" />
  </linearGradient>
  <linearGradient id="uuid-42b4c633-8638-4181-9dc0-2dd15fef403e" x1="6.698" y1="783.54" x2="10.942" y2="779.296" gradientTransform="translate(0 791.516) scale(1 -1)" gradientUnits="userSpaceOnUse">
    <stop offset=".01" stop-color="#198ab3" />
    <stop offset=".881" stop-color="#32bedd" />
  </linearGradient>
  <linearGradient id="uuid-c967cec4-c438-4db3-8823-cd09b82ea00b" x1="6.222" y1="779.376" x2="6.222" y2="785.382" gradientTransform="translate(0 791.516) scale(1 -1)" gradientUnits="userSpaceOnUse">
    <stop offset="0" stop-color="#50e6ff" />
    <stop offset="1" stop-color="#9cebff" />
  </linearGradient>
  <path d="M4.382,15.935l-.626-.361-1.732-1.005c-.052-.029-.084-.085-.084-.145l-.003.002V3.577s0,0,0-.001h.003c0-.059.031-.114.084-.143l2.358-1.37c.079-.048.106-.148.061-.228l-.679-1.181c-.016-.027-.039-.046-.065-.06-.006-.003-.01-.006-.016-.008-.028-.012-.058-.018-.089-.013-.029,0-.058.006-.083.02l-1.975,1.146-1.228.713c-.024.015-.045.034-.059.058l.019.012c-.013.023-.019.049-.019.075v12.808s0,0,0,0h0c0,.026.007.053.019.076l-.019.011c.015.024.035.045.059.059l1.226.712,1.975,1.147c.025.015.054.021.084.02.014.002.026-.005.04-.006.013,0,.025-.002.037-.006.013-.004.024-.01.036-.017.016-.01.029-.023.041-.038.004-.006.012-.008.016-.014l.68-1.181c.023-.041.027-.087.015-.129-.011-.042-.037-.079-.077-.103Z" fill="#a3a3a3" />
  <path d="M17.75,2.596h0s0,0,0,0h0c0-.026-.007-.053-.019-.076l.019-.011c-.015-.024-.035-.045-.059-.059l-1.228-.712-1.975-1.147c-.025-.015-.054-.021-.084-.02-.001,0-.003,0-.004,0-.029-.004-.058.002-.084.013-.006.002-.01.005-.016.007-.025.014-.049.032-.064.059l-.187.325-.494.858c-.045.081-.018.182.061.229l2.358,1.369c.053.029.084.085.084.145h0s0,10.846,0,10.846c0,.06-.031.116-.084.145l-2.358,1.37c-.016.01-.029.023-.041.037-.002.003-.006.004-.008.007-.002.002-.002.005-.003.007-.035.051-.042.119-.01.177l.68,1.181s.004.003.005.005c.015.024.035.041.058.054.006.004.012.007.019.009.029.012.06.017.092.012.028,0,.055-.006.079-.019l1.975-1.146,1.228-.713c.024-.015.045-.034.059-.058l-.019-.011c.012-.023.02-.048.02-.075V2.596Z" fill="#a3a3a3" />
  <path d="M13.158,6.804c.08-.072-1.003-2.517-1.043-2.655-.069-.16-.184-.302-.336-.387-.169-.072-2.267-.657-2.447-.645-.08-.025-1.104.535-1.198.57-.015-.011-.129.092-.17.154l-1.16,1.788c-.108.167-.118.404-.027.623l.983,2.362c.091.221.269.387.468.441l2.141.575c.113.039.26.007.327-.028h0c.15-.098,1.15-.516,1.215-.681l1.158-1.788c.063-.097.09-.215.089-.331h0Z" fill="#32bedd" />
  <path d="M11.069,4.676l.981,2.362c.091.221.081.458-.026.623l-1.158,1.788c-.108.167-.297.235-.496.182l-2.141-.575c-.199-.053-.377-.221-.468-.441l-.983-2.362c-.091-.219-.081-.457.026-.623l1.16-1.788c.108-.165.296-.236.495-.182l2.141.575c.199.053.379.222.47.441h0Z" fill="url(#uuid-467fa109-7460-4c76-a38e-ba4b6c7505ac)" />
  <path d="M14.165,11.858c.08-.072-1.003-2.517-1.043-2.655-.069-.16-.184-.302-.336-.387-.169-.072-2.267-.657-2.447-.645-.08-.025-1.104.535-1.198.57-.015-.011-.129.092-.17.154l-1.16,1.788c-.108.167-.118.404-.027.623l.983,2.362c.091.221.269.387.468.441l2.141.575c.113.039.26.007.327-.028h0c.15-.098,1.15-.516,1.215-.681l1.158-1.788c.063-.097.09-.215.089-.331h0Z" fill="#198ab3" />
  <path d="M12.076,9.73l.981,2.362c.091.221.081.458-.026.623l-1.158,1.788c-.108.167-.297.235-.496.182l-2.141-.575c-.199-.053-.377-.221-.468-.441l-.983-2.362c-.091-.219-.081-.457.026-.623l1.16-1.788c.108-.165.296-.236.495-.182l2.141.575c.199.053.379.222.47.441h0Z" fill="url(#uuid-42b4c633-8638-4181-9dc0-2dd15fef403e)" />
  <path d="M9.966,9.295c.08-.072-1.003-2.517-1.043-2.655-.069-.16-.184-.302-.336-.387-.169-.072-2.267-.657-2.447-.645-.08-.025-1.104.535-1.198.57-.015-.011-.129.092-.17.154l-1.16,1.788c-.108.167-.118.404-.027.623l.983,2.362c.091.221.269.387.468.441l2.141.575c.113.039.26.007.327-.028h0c.15-.098,1.15-.516,1.215-.681l1.158-1.788c.063-.097.09-.215.089-.331h0Z" fill="#50e6ff" />
  <path d="M7.877,7.167l.981,2.362c.091.221.081.458-.026.623l-1.158,1.788c-.108.167-.297.235-.496.182l-2.141-.575c-.199-.053-.377-.221-.468-.441l-.983-2.362c-.091-.219-.081-.457.026-.623l1.16-1.788c.108-.165.296-.236.495-.182l2.141.575c.199.053.379.222.47.441h0Z" fill="url(#uuid-c967cec4-c438-4db3-8823-cd09b82ea00b)" />
</svg>
