<svg id="uuid-5cc3f917-bb6d-430a-8866-a39232624ec9" xmlns="http://www.w3.org/2000/svg" width="18" height="18" viewBox="0 0 18 18">
  <defs>
    <linearGradient id="uuid-17430223-7536-43ad-8e3b-7eba5ffa6d34" x1="8.98" y1="16.47" x2="8.98" y2="1.53" gradientUnits="userSpaceOnUse">
      <stop offset="0" stop-color="#0078d4" />
      <stop offset=".78" stop-color="#5ea0ef" />
    </linearGradient>
    <linearGradient id="uuid-114f26e9-72c9-48a1-bda4-0117448297f6" x1="8.98" y1="12.59" x2="8.98" y2="5.42" gradientUnits="userSpaceOnUse">
      <stop offset="0" stop-color="#005ba1" />
      <stop offset="1" stop-color="#0078d4" />
    </linearGradient>
  </defs>
  <rect width="18" height="18" fill="none" />
  <path d="M8.98,16.47c-.29,0-.59-.06-.87-.17l-5.58-2.26c-.75-.3-1.23-1.02-1.23-1.83v-6.43c0-.81.48-1.53,1.23-1.83l5.58-2.26c.56-.23,1.18-.23,1.73,0h0l5.58,2.26c.75.3,1.23,1.02,1.23,1.83v6.43c0,.81-.48,1.53-1.23,1.83l-5.58,2.26c-.28.11-.57.17-.87.17ZM8.98,2.28c-.2,0-.4.04-.59.11l-5.58,2.26c-.46.19-.76.63-.76,1.13v6.43c0,.5.3.95.76,1.13l5.58,2.26c.38.15.79.15,1.17,0l5.58-2.26c.46-.19.76-.63.76-1.13v-6.43c0-.5-.3-.95-.76-1.13l-5.58-2.26c-.19-.08-.39-.11-.58-.11Z" fill="url(#uuid-17430223-7536-43ad-8e3b-7eba5ffa6d34)" />
  <path d="M12.31,9.75l-.46-.34c-.13-.1-.21-.25-.21-.41s.08-.31.21-.41l.46-.34c.09-.07.13-.19.1-.3-.16-.52-.44-1-.81-1.39-.08-.09-.21-.11-.31-.06l-.51.23c-.06.03-.13.04-.2.04-.26,0-.48-.2-.51-.45l-.06-.56c-.01-.12-.1-.21-.21-.24-.26-.06-.53-.09-.8-.09-.28,0-.55.03-.81.09-.12.03-.2.12-.21.24l-.06.56c-.02.16-.11.3-.25.38-.14.08-.31.09-.46.03l-.51-.23c-.11-.05-.23-.02-.31.06-.37.4-.65.87-.81,1.39-.03.11,0,.23.1.3l.46.34c.13.1.21.25.21.41s-.08.31-.21.41l-.46.34c-.09.07-.13.19-.1.3.16.52.44,1,.81,1.4.08.09.2.11.31.06l.52-.23c.15-.06.32-.05.46.03.14.08.23.22.25.38l.06.56c.01.12.1.21.21.24.53.13,1.09.13,1.62,0,.11-.03.2-.12.21-.24l.06-.56c.02-.16.11-.3.25-.38.14-.08.31-.09.46-.03l.52.23c.11.05.23.02.31-.06.37-.4.65-.87.81-1.39.03-.11,0-.23-.1-.3ZM8.98,10.34c-.74,0-1.34-.6-1.34-1.34s.6-1.34,1.34-1.34,1.34.6,1.34,1.34-.6,1.34-1.34,1.34Z" fill="url(#uuid-114f26e9-72c9-48a1-bda4-0117448297f6)" />
  <path d="M1.53,5.16l2.89,1.68c.06.03.12.05.19.05.13,0,.25-.07.32-.19.1-.18.04-.41-.14-.51l-2.89-1.68c-.18-.1-.41-.04-.51.14s-.04.41.14.51ZM4.45,11.22l-2.9,1.66c-.18.1-.24.33-.14.51.07.12.2.19.33.19.06,0,.13-.02.19-.05l2.9-1.66c.18-.1.24-.33.14-.51-.1-.18-.33-.24-.51-.14ZM9.02,13.35h0c-.21,0-.37.17-.38.37v2.96c-.01.21.15.38.36.38h0c.21,0,.37-.17.38-.37v-2.96c.01-.21-.15-.38-.36-.38ZM16.43,12.84l-2.89-1.68c-.18-.1-.41-.04-.51.14-.1.18-.04.41.14.51l2.89,1.68c.06.03.12.05.19.05.13,0,.25-.07.32-.19.1-.18.04-.41-.14-.51ZM13.32,6.83c.06,0,.13-.02.19-.05l2.9-1.66c.18-.1.24-.33.14-.51-.1-.18-.33-.24-.51-.14l-2.9,1.66c-.18.1-.24.33-.14.51.07.12.2.19.33.19ZM8.99,4.69h0c.21,0,.37-.17.37-.38l-.04-3.17c0-.21-.22-.38-.38-.37-.21,0-.37.17-.37.38l.04,3.17c0,.21.17.37.38.37Z" fill="#0078d4" />
  <path d="M8.98.56c-.74,0-1.34.6-1.34,1.34s.6,1.34,1.34,1.34,1.34-.6,1.34-1.34-.6-1.34-1.34-1.34ZM8.98,14.75c-.74,0-1.34.6-1.34,1.34s.6,1.34,1.34,1.34,1.34-.6,1.34-1.34-.6-1.34-1.34-1.34ZM16.28,11.82c-.74,0-1.34.6-1.34,1.34s.6,1.34,1.34,1.34,1.34-.6,1.34-1.34-.6-1.34-1.34-1.34ZM16.28,6.18c.74,0,1.34-.6,1.34-1.34s-.6-1.34-1.34-1.34-1.34.6-1.34,1.34.6,1.34,1.34,1.34ZM1.72,11.82c-.74,0-1.34.6-1.34,1.34s.6,1.34,1.34,1.34,1.34-.6,1.34-1.34-.6-1.34-1.34-1.34ZM1.72,3.49c-.74,0-1.34.6-1.34,1.34s.6,1.34,1.34,1.34,1.34-.6,1.34-1.34-.6-1.34-1.34-1.34Z" fill="#86d633" />
</svg>
